<svg width="44" height="52" viewBox="0 0 44 52" fill="none" xmlns="http://www.w3.org/2000/svg">
<path d="M20.0748 51V45.9711C20.0748 45.764 19.9916 45.5654 19.8435 45.419C19.6954 45.2725 19.4946 45.1903 19.2852 45.1903H10.4185C10.1541 45.1892 9.89252 45.1367 9.64864 45.0357C9.40476 44.9347 9.18339 44.7872 8.99716 44.6015C8.81094 44.4159 8.66351 44.1958 8.56329 43.9538C8.46306 43.7118 8.41201 43.4527 8.41305 43.1912V35.8666C8.42203 35.6963 8.37442 35.5278 8.27747 35.3868C8.18052 35.2458 8.03958 35.14 7.87615 35.0857L5.72067 34.3751C5.56588 34.3238 5.42459 34.239 5.30713 34.1269C5.18966 34.0148 5.09897 33.8781 5.04166 33.727C4.99711 33.5676 4.98816 33.4005 5.01543 33.2373C5.0427 33.0742 5.10553 32.9188 5.19956 32.7821L8.35778 27.5268C8.35778 27.4799 8.35778 27.4799 8.35778 27.4799C8.3809 27.4323 8.39941 27.3826 8.41305 27.3316C8.41687 27.2796 8.41687 27.2274 8.41305 27.1754C8.41647 27.16 8.41647 27.144 8.41305 27.1285C8.39498 24.6466 8.99473 22.1985 10.1594 20H37.2533C37.897 21.2151 38.3729 22.5157 38.6642 23.8673C39.1872 26.2948 39.0982 28.8122 38.405 31.1976C37.7118 33.583 36.4358 35.763 34.6894 37.5455C34.6682 37.5722 34.6497 37.601 34.6342 37.6314C34.5945 37.6797 34.5601 37.732 34.5315 37.7875C34.5277 37.8473 34.5277 37.9073 34.5315 37.9671C34.5271 38.0034 34.5271 38.0402 34.5315 38.0765V51" stroke="#FF6200" stroke-width="2"/>
<path d="M23.5 33V5" stroke="#FF6200" stroke-width="2" stroke-linecap="round" stroke-linejoin="round"/>
<path d="M29.4928 15L22.5 15V12.7127C22.5 11.4628 23.0278 10.2641 23.9674 9.38032C24.9069 8.49651 26.1811 8 27.5098 8H34.5V10.2873C34.5 11.5367 33.9725 12.7351 33.0336 13.6188C32.0946 14.5025 30.821 14.9993 29.4928 15Z" fill="#FF6200"/>
<path d="M16.9245 7L24.5 7V4.71272C24.5 3.46283 23.9282 2.26413 22.9104 1.38032C21.8926 0.496512 20.5121 0 19.0727 0L11.5 0V2.28727C11.5 3.53674 12.0714 4.73506 13.0886 5.6188C14.1058 6.50254 15.4856 6.99935 16.9245 7Z" fill="#FF6200"/>
<path d="M24 26H26C27.6569 26 29 27.3431 29 29V32" stroke="#FF6200" stroke-width="2" stroke-linecap="round" stroke-linejoin="round"/>
<path d="M23 23H21C19.3431 23 18 24.3431 18 26V29" stroke="#FF6200" stroke-width="2" stroke-linecap="round" stroke-linejoin="round"/>
</svg>
