<svg width="28" height="29" viewBox="0 0 28 29" fill="none" xmlns="http://www.w3.org/2000/svg">
<mask id="mask0_676:2844" style="mask-type:alpha" maskUnits="userSpaceOnUse" x="0" y="0" width="26" height="29">
<path d="M0 0H25.2V29H0V0Z" fill="white"/>
</mask>
<g mask="url(#mask0_676:2844)">
<path fill-rule="evenodd" clip-rule="evenodd" d="M14.4515 0.293638C13.764 -0.0978793 12.917 -0.0978793 12.2295 0.293638L1.11051 6.62978C0.423006 7.0213 -0.000488281 7.74525 -0.000488281 8.52872V21.2001C-0.000488281 21.9836 0.423006 22.7076 1.11051 23.0995L11.1185 28.8021C12.1062 29.3647 13.3405 28.661 13.3405 27.5358V16.1307C13.3405 15.3472 13.764 14.6228 14.4515 14.2313L24.459 8.52872C25.4467 7.96614 25.4467 6.55923 24.459 5.99665L14.4515 0.293638Z" fill="white"/>
</g>
<path fill-rule="evenodd" clip-rule="evenodd" d="M18.1846 18.6594C18.1846 17.959 18.5603 17.3126 19.1699 16.9623L25.3436 13.42C26.2196 12.9169 27.3151 13.5457 27.3151 14.5514V21.6361C27.3151 22.3365 26.9394 22.983 26.3294 23.3332L20.1561 26.8755C19.2797 27.3782 18.1846 26.7499 18.1846 25.7441V18.6594Z" fill="#FF6200"/>
</svg>
