<svg width="44" height="44" viewBox="0 0 44 44" fill="none" xmlns="http://www.w3.org/2000/svg">
<path fill-rule="evenodd" clip-rule="evenodd" d="M14.2797 32.7455C14.3394 32.7455 14.3857 32.7515 14.4186 32.7636H14.5279L14.7726 32.7634C16.8898 32.7596 18.6022 32.7051 19.9097 32.6C21.2794 32.4909 22.5521 32.3212 23.7279 32.0909C23.7278 32.0909 23.7278 32.091 23.7277 32.091C22.5519 32.3213 21.2792 32.491 19.9095 32.6001C18.552 32.7091 16.758 32.7637 14.5277 32.7637H14.4184C14.3855 32.7516 14.3392 32.7455 14.2796 32.7455H6.49774C6.45707 32.7455 6.42322 32.7489 6.39619 32.7557C6.42325 32.7489 6.45716 32.7455 6.49793 32.7455H14.2797ZM27.0734 33.5455C27.6855 33.3515 28.2673 33.1394 28.8188 32.9091C29.9218 32.4485 30.9885 31.9212 32.0188 31.3273C33.0491 30.7212 34.0794 30.0485 35.1097 29.3091C36.14 28.5697 37.2552 27.7636 38.4552 26.8909L38.1461 24.8727C37.9521 24.8 37.6249 24.6727 37.1643 24.4909C36.7158 24.297 36.1703 24.0667 35.5279 23.8C34.8976 23.5333 34.2006 23.2424 33.437 22.9273C32.6734 22.6121 31.8855 22.297 31.0734 21.9818C30.2612 21.6546 29.4491 21.3455 28.637 21.0546C27.8249 20.7515 27.0552 20.4849 26.3279 20.2546C25.6006 20.0243 24.94 19.8424 24.3461 19.7091C23.7643 19.5636 23.2855 19.4909 22.9097 19.4909C22.4708 19.4909 22.0539 19.5417 21.6591 19.6433C22.0538 19.5417 22.4706 19.491 22.9095 19.491C23.2853 19.491 23.7641 19.5637 24.3459 19.7091C24.9398 19.8425 25.6004 20.0243 26.3277 20.2546C27.055 20.4849 27.8247 20.7516 28.6368 21.0546C29.4489 21.3455 30.261 21.6546 31.0732 21.9819C31.8853 22.297 32.6732 22.6122 33.4368 22.9273C34.2004 23.2425 34.8974 23.5334 35.5277 23.8001C36.1701 24.0667 36.7156 24.297 37.1641 24.491C37.6247 24.6728 37.952 24.8001 38.1459 24.8728L38.455 26.891C37.255 27.7637 36.1398 28.5698 35.1095 29.3091C34.0792 30.0485 33.0489 30.7213 32.0186 31.3273C30.9883 31.9213 29.9216 32.4485 28.8186 32.9091C28.2672 33.1394 27.6854 33.3515 27.0734 33.5455ZM19.4914 25.1636L19.4915 25.1636L19.5 25.1313C19.7792 24.068 20.2188 23.2364 20.8188 22.6364C21.1981 22.2645 21.6048 22.0067 22.0388 21.863C21.6047 22.0067 21.198 22.2645 20.8186 22.6364C20.2126 23.2425 19.7702 24.0849 19.4914 25.1636ZM14.2797 32.4455C14.3332 32.4455 14.3964 32.4489 14.4599 32.4636H14.5279C16.7545 32.4636 18.5397 32.4091 19.8859 32.301C21.2453 32.1927 22.5061 32.0245 23.6688 31.7968C24.8437 31.557 25.9197 31.2578 26.8976 30.9001L26.8987 30.8997C27.8922 30.5406 28.8619 30.1156 29.8079 29.6246C30.757 29.132 31.713 28.579 32.6756 27.9653C33.5142 27.427 34.4062 26.8396 35.3519 26.2033C34.6848 25.9517 33.999 25.6926 33.2945 25.426L33.2932 25.4256C32.409 25.0864 31.5309 24.7534 30.6589 24.4264C29.7879 24.0997 28.9413 23.7913 28.119 23.5011C27.2973 23.2111 26.5429 22.9576 25.8557 22.7406L25.8512 22.7392C25.1668 22.511 24.5644 22.3383 24.0432 22.2198L24.0354 22.2179C23.5216 22.0865 23.1445 22.0273 22.8915 22.0273C22.2176 22.0273 21.5998 22.2912 21.0299 22.8496C20.472 23.408 20.0511 24.1973 19.782 25.2387L19.7068 25.5297L16.9625 24.8148L17.0375 24.5249C17.2249 23.8001 17.4878 23.1175 17.8264 22.4778L17.8286 22.4738C18.1813 21.8314 18.605 21.2678 19.1004 20.7851C19.5975 20.3007 20.1596 19.9172 20.7855 19.636C21.434 19.3379 22.1436 19.1909 22.9097 19.1909C23.3193 19.1909 23.8235 19.2694 24.4153 19.4172C25.0185 19.5527 25.6864 19.7367 26.4185 19.9685C27.1506 20.2004 27.9244 20.4685 28.7399 20.7728C29.5546 21.0646 30.3692 21.3747 31.1838 21.7029C31.9971 22.0185 32.7863 22.3342 33.5514 22.65C34.3154 22.9653 35.013 23.2564 35.6441 23.5234C36.2847 23.7894 36.8298 24.0195 37.2789 24.2136C37.7371 24.3945 38.0608 24.5203 38.2514 24.5918L38.416 24.6536L38.7794 27.0261L38.6316 27.1335C37.4312 28.0066 36.3155 28.813 35.2846 29.5528C34.2474 30.2972 33.2095 30.9749 32.1709 31.5859L32.1686 31.5872C31.1272 32.1875 30.0491 32.7204 28.9344 33.1859C27.814 33.6538 26.5737 34.0465 25.2145 34.3648L25.212 34.3654C23.8519 34.6717 22.3361 34.9038 20.6653 35.0623C19.0816 35.2126 16.9638 35.2912 14.3151 35.2993C14.3029 35.2998 14.2911 35.3 14.2797 35.3H6.49793C6.41153 35.3 6.29323 35.2866 6.18953 35.214C6.06632 35.1277 6.01611 34.9964 6.01611 34.8727V32.8364C6.01611 32.7687 6.03389 32.6962 6.07786 32.6302C6.12058 32.5661 6.17666 32.5252 6.2274 32.4999C6.3204 32.4534 6.422 32.4455 6.49793 32.4455H14.2797Z" fill="#FF6200"/>
<path d="M19 8.14984L29 4V6.80456L19 11V8.14984Z" fill="#FF6200"/>
</svg>
