<svg width="47" height="46" viewBox="0 0 47 46" fill="none" xmlns="http://www.w3.org/2000/svg">
<path d="M43.3648 16.9251C44.6837 11.6579 41.483 6.31888 36.2158 5" stroke="#FF6200" stroke-width="1.5" stroke-linecap="round"/>
<path d="M32.6172 4.01561L38.225 1.48297C38.376 1.41482 38.5396 1.54907 38.5022 1.71038L36.8174 8.9835C36.78 9.14481 36.574 9.19344 36.4684 9.06587L32.5455 4.32539C32.4613 4.22374 32.497 4.06992 32.6172 4.01561Z" fill="#FF6200"/>
<rect x="10.5674" y="7.30994" width="25" height="32" rx="2" transform="rotate(15 10.5674 7.30994)" stroke="#FF6200" stroke-width="2"/>
<path d="M26.9115 27.2185L10.4907 22.8186" stroke="#FF6200" stroke-width="1.5" stroke-linecap="round" stroke-linejoin="round"/>
<path d="M25.8763 31.0822L9.45557 26.6823" stroke="#FF6200" stroke-width="1.5" stroke-linecap="round" stroke-linejoin="round"/>
<path d="M24.8411 34.9459L8.42041 30.546" stroke="#FF6200" stroke-width="1.5" stroke-linecap="round" stroke-linejoin="round"/>
<rect x="24.021" y="15.0559" width="7" height="7" rx="1" transform="rotate(15 24.021 15.0559)" fill="#FF6200"/>
<path d="M23.8059 38.8095L17.0444 36.9978" stroke="#FF6200" stroke-width="1.5" stroke-linecap="round" stroke-linejoin="round"/>
</svg>
