<svg width="44" height="44" viewBox="0 0 44 44" fill="none" xmlns="http://www.w3.org/2000/svg">
<path d="M3.08194 33.6036C2.86299 34.1106 3.09653 34.6991 3.60356 34.9181C4.1106 35.137 4.69912 34.9035 4.91806 34.3964L3.08194 33.6036ZM13.5 12L14.4181 11.6036C14.2599 11.2372 13.899 11 13.5 11C13.101 11 12.7401 11.2372 12.5819 11.6036L13.5 12ZM22.0819 34.3964C22.3009 34.9035 22.8894 35.137 23.3964 34.9181C23.9035 34.6991 24.137 34.1106 23.9181 33.6036L22.0819 34.3964ZM7.05357 26.9286L6.13551 26.5321L7.05357 26.9286ZM4.91806 34.3964L7.97163 27.325L6.13551 26.5321L3.08194 33.6036L4.91806 34.3964ZM7.97163 27.325L14.4181 12.3964L12.5819 11.6036L6.13551 26.5321L7.97163 27.325ZM12.5819 12.3964L19.0284 27.325L20.8645 26.5321L14.4181 11.6036L12.5819 12.3964ZM19.0284 27.325L22.0819 34.3964L23.9181 33.6036L20.8645 26.5321L19.0284 27.325ZM7.05357 27.9286H19.9464V25.9286H7.05357V27.9286Z" fill="#FF6200"/>
<path d="M40 12L33 12C30.8462 12 29 11.9998 28 15" stroke="#FF6200" stroke-width="2" stroke-linecap="round"/>
<path d="M35.5 18V34C35.5 34.5523 35.0523 35 34.5 35C33.9477 35 33.5 34.5523 33.5 34V18C33.5 17.4477 33.9477 17 34.5 17C35.0523 17 35.5 17.4477 35.5 18Z" fill="#FF6200"/>
</svg>
