<svg width="109" height="160" viewBox="0 0 109 160" fill="none" xmlns="http://www.w3.org/2000/svg">
<g opacity="0.2">
<path d="M146.091 50.9091H50.2725C48.6156 50.9091 47.2725 52.2523 47.2725 53.9091V121.444C47.2725 123.101 48.6156 124.444 50.2725 124.444H122.429C122.887 124.444 123.331 124.602 123.687 124.89L149.091 145.455V53.9091C149.091 52.2523 147.747 50.9091 146.091 50.9091Z" stroke="#FF6200" stroke-width="3"/>
<path d="M76.3643 76.3636H120.001" stroke="#FF6200" stroke-width="3" stroke-linecap="round" stroke-linejoin="round"/>
<path d="M76.3643 98.1818H120.001" stroke="#FF6200" stroke-width="3" stroke-linecap="round" stroke-linejoin="round"/>
<path d="M116.364 48.8201V21.1818C116.364 19.5249 115.021 18.1818 113.364 18.1818H13.9097C12.2529 18.1818 10.9097 19.5249 10.9097 21.1818V98.1818L32.874 83.21C33.206 82.9837 33.5986 82.8626 34.0004 82.8626H47.2734" stroke="#FF6200" stroke-width="3" stroke-miterlimit="6.00562"/>
</g>
</svg>
