<svg width="53" height="19" viewBox="0 0 53 19" fill="none" xmlns="http://www.w3.org/2000/svg">
<path d="M45.538 9.75882C45.3104 7.18484 43.8926 5.88989 41.3163 5.88989C40.3491 5.88989 37.4019 5.88989 37.304 10.4416C37.2767 11.7684 37.6818 12.8904 38.4146 13.5185C38.7378 13.7939 39.4797 14.2673 40.8134 14.3287C41.9257 14.3628 43.0344 14.1868 44.0815 13.8098C44.0815 13.8963 44.0678 13.9828 44.061 14.0738C43.9904 14.9227 43.6878 15.5326 43.1325 15.94C42.0833 16.7092 40.2376 16.6523 38.8607 16.3405L38.0937 16.1585L37.7478 17.6947L38.5148 17.8676C39.2495 18.0356 40.0005 18.1226 40.7542 18.1271C42.1197 18.1271 43.228 17.8153 44.0655 17.2008C44.9759 16.534 45.4857 15.5508 45.6313 14.1967C45.7337 13.2295 45.6996 11.6068 45.538 9.75882ZM44.3136 12.2053L44.2567 12.2395C43.3141 12.7372 42.264 12.9967 41.198 12.9951H41.1752C40.5061 12.9951 39.6709 12.9177 39.127 12.3442C38.756 11.955 38.5853 11.3883 38.6195 10.6623C38.756 7.75836 39.6322 7.22809 41.3072 7.22809C43.3873 7.22809 43.9358 8.18621 44.1839 9.84302C44.2749 10.4529 44.3045 11.8276 44.3045 12.1416L44.3136 12.2053Z" fill="white"/>
<path d="M52.7599 8.46372L52.703 7.61938L51.358 7.71042L51.4149 8.55475C51.5609 10.2199 51.5761 11.894 51.4604 13.5616C51.3898 14.6449 51.0416 15.446 50.4249 15.9444C49.4895 16.7 48.1194 16.6272 47.3866 16.5179L46.7198 16.4178L46.5195 17.7514L47.1864 17.8516C47.5442 17.9051 47.9055 17.9325 48.2674 17.9335C49.4622 17.9335 50.5045 17.6103 51.2715 16.9936C52.1932 16.2494 52.7098 15.1251 52.8054 13.6504C52.9247 11.9229 52.9095 10.1888 52.7599 8.46372V8.46372Z" fill="white"/>
<path d="M48.2669 18.0451C47.8996 18.0446 47.533 18.0164 47.1699 17.9609L46.3916 17.8448L46.6192 16.2859L47.3975 16.4042C48.1121 16.5112 49.4458 16.5817 50.3561 15.8535C50.9456 15.3778 51.2801 14.604 51.3484 13.5526C51.464 11.8911 51.4488 10.2231 51.3029 8.56395L51.2369 7.60582L52.8095 7.49658L52.8755 8.45926C53.0254 10.1874 53.0399 11.9246 52.9187 13.655C52.8208 15.1639 52.2906 16.3155 51.3415 17.0688C50.5587 17.7105 49.4958 18.0451 48.2669 18.0451Z" fill="white"/>
<path d="M6.25958 18.0314C4.19084 18.0314 2.52038 17.3827 1.42798 16.1538C0.290058 14.8816 -0.18104 13.0131 0.0624743 10.892C0.210404 9.72454 0.362885 8.60483 0.460746 7.86974L0.476677 7.75595L2.03563 7.98353L2.0197 8.09732C1.91728 8.82104 1.76935 9.91799 1.63053 11.0764C1.43253 12.7423 1.77618 14.1715 2.60231 15.1024C3.39658 15.999 4.62553 16.4519 6.25503 16.4519C9.58458 16.4519 11.4895 14.7724 11.4895 11.8411C11.4895 10.8374 11.4895 9.79282 11.2186 6.23113V6.11962L12.7912 5.97852V6.09686C12.8368 6.96851 13.0188 9.19427 13.0848 9.82923C13.2942 11.5293 13.6606 12.0618 15.7703 12.3076C18.1554 12.5875 29.3639 12.5762 35.4131 12.2894H35.5269L35.5974 13.862H35.4836C29.4344 14.1237 19.8054 14.2011 15.6429 13.8825C14.4708 13.7937 13.6151 13.5457 12.9688 13.1087C12.4408 16.197 9.94644 18.0314 6.25958 18.0314Z" fill="white"/>
<path d="M6.68965 10.9423C6.867 10.9423 7.04036 10.8897 7.18782 10.7912C7.33528 10.6926 7.45021 10.5526 7.51808 10.3888C7.58594 10.2249 7.6037 10.0446 7.5691 9.87067C7.5345 9.69673 7.4491 9.53696 7.3237 9.41156C7.1983 9.28615 7.03852 9.20075 6.86459 9.16616C6.69065 9.13156 6.51035 9.14931 6.34651 9.21718C6.18266 9.28505 6.04262 9.39998 5.94409 9.54744C5.84556 9.6949 5.79297 9.86826 5.79297 10.0456C5.79267 10.1634 5.81566 10.2802 5.86062 10.3891C5.90557 10.498 5.97161 10.597 6.05493 10.6803C6.13826 10.7636 6.23723 10.8297 6.34615 10.8746C6.45508 10.9196 6.57181 10.9426 6.68965 10.9423V10.9423Z" fill="white"/>
<path d="M24.8367 2.90397C25.6387 2.90397 26.2887 2.25389 26.2887 1.45198C26.2887 0.650076 25.6387 0 24.8367 0C24.0348 0 23.3848 0.650076 23.3848 1.45198C23.3848 2.25389 24.0348 2.90397 24.8367 2.90397Z" fill="#FABE46"/>
<path d="M20.2723 4.57902C21.0742 4.57902 21.7243 3.92894 21.7243 3.12703C21.7243 2.32512 21.0742 1.67505 20.2723 1.67505C19.4704 1.67505 18.8203 2.32512 18.8203 3.12703C18.8203 3.92894 19.4704 4.57902 20.2723 4.57902Z" fill="#FABE46"/>
<path d="M18.0418 8.62541C18.8437 8.62541 19.4938 7.97533 19.4938 7.17342C19.4938 6.37151 18.8437 5.72144 18.0418 5.72144C17.2399 5.72144 16.5898 6.37151 16.5898 7.17342C16.5898 7.97533 17.2399 8.62541 18.0418 8.62541Z" fill="#FABE46"/>
<path d="M31.6326 8.62541C32.4346 8.62541 33.0846 7.97533 33.0846 7.17342C33.0846 6.37151 32.4346 5.72144 31.6326 5.72144C30.8307 5.72144 30.1807 6.37151 30.1807 7.17342C30.1807 7.97533 30.8307 8.62541 31.6326 8.62541Z" fill="#FABE46"/>
<path d="M29.4022 4.57902C30.2041 4.57902 30.8542 3.92894 30.8542 3.12703C30.8542 2.32512 30.2041 1.67505 29.4022 1.67505C28.6003 1.67505 27.9502 2.32512 27.9502 3.12703C27.9502 3.92894 28.6003 4.57902 29.4022 4.57902Z" fill="#FABE46"/>
</svg>
