<svg width="303" height="575" viewBox="0 0 303 575" fill="none" xmlns="http://www.w3.org/2000/svg">
<g opacity="0.1">
<path d="M-1.93141 422.276C10.4382 422.276 24.3004 421.707 39.6551 420.569C54.4738 419.48 69.1972 417.347 83.7156 414.186C96.7476 411.4 109.506 407.459 121.839 402.41C133.219 397.659 141.284 393.305 146.034 389.347C150.588 385.611 154.463 381.116 157.488 376.062C160.358 371.114 162.238 368.64 163.104 368.64C163.97 368.64 164.687 370.297 164.39 373.588C163.29 379.988 161.404 386.229 158.774 392.167C155.468 400.483 151.324 408.441 146.405 415.917C142.332 421.804 137.248 426.922 131.388 431.034C122.407 437.004 112.94 442.21 103.086 446.595C93.2178 450.568 83.1232 453.955 72.8551 456.738C56.5941 460.988 40.0633 464.129 23.3768 466.139C7.68197 468.055 -8.11334 469.03 -23.9246 469.059C-37.4907 469.301 -51.057 468.582 -64.5216 466.906C-79.9258 464.449 -90.877 459.839 -97.3752 453.077C-103.367 447.535 -106.608 439.632 -106.232 431.479C-106.082 426.336 -105.57 421.211 -104.698 416.14C-103.708 409.543 -102.521 402.946 -101.136 396.348C-100.317 391.936 -99.2768 387.568 -98.0184 383.261C-97.301 381.183 -96.2125 380.144 -94.7776 380.144C-93.3427 380.144 -92.3037 381.405 -92.081 383.929C-91.8584 386.452 -91.3141 390.435 -90.8935 395.903C-90.473 401.37 -86.2673 406.343 -78.3508 410.747C-62.963 418.169 -37.4899 422.012 -1.93141 422.276ZM-18.7788 556.217C-18.7788 553.05 -16.0822 546.173 -10.6891 535.584C-5.29594 524.995 -1.78297 519.701 -0.199662 519.701C2.96695 518.415 7.56842 520.814 13.6048 526.95C19.6411 533.085 22.9067 537.86 23.3273 541.324C23.3273 545.925 20.8121 552.523 15.7818 561.116C10.834 569.75 7.07364 574.079 4.74816 574.079C3.90703 573.634 0.913588 571.729 -4.20742 568.34C-9.32844 564.95 -13.0888 562.402 -15.538 560.67C-17.9872 558.938 -18.7788 557.8 -18.7788 556.217Z" fill="#FF6200"/>
<path d="M153.243 252.319C152.872 264.871 152.576 272.966 152.403 276.58C152.34 287.644 151.291 298.679 149.269 309.555C146.504 325.267 142.662 337.744 137.742 346.987C133.821 354.827 128.892 362.118 123.082 368.673C118.836 373.127 113.881 376.841 108.421 379.665C98.51 385.345 87.2254 388.164 75.8162 387.81C64.15 387.81 55.9228 385.714 51.1345 381.522C47.1686 377.468 45.1051 371.916 45.4577 366.247C46.0135 355.836 47.5842 345.505 50.1473 335.401C50.7149 333.42 51.4307 332.405 52.2699 332.405C53.1091 332.405 53.8495 333.173 53.8495 334.708C53.6483 336.076 53.5493 337.458 53.5533 338.842C53.1652 345.589 57.3009 351.771 63.6728 353.968C67.2226 355.199 70.8982 356.029 74.6315 356.444C79.1729 356.914 83.0232 357.161 86.1578 357.161C94.687 357.288 103.17 355.888 111.21 353.027C120.01 349.976 127.565 344.103 132.707 336.317C134.994 331.836 136.536 327.011 137.274 322.033C138.541 311.562 139.06 301.014 138.828 290.468C139.207 272.974 139.495 262.651 139.692 259.498C139.781 255.859 140.161 252.233 140.828 248.655C141.864 245.619 143.995 240.519 147.22 233.356C150.651 225.929 152.922 221.126 154.057 218.948C154.929 218.568 155.497 218.568 155.76 218.948C155.964 219.861 155.964 220.808 155.76 221.721C155.612 223.206 155.439 224.939 155.192 226.944C154.946 228.949 154.575 232.712 154.057 238.233C153.539 243.754 153.243 248.507 153.243 252.319ZM269.839 125.097C263.092 131.699 256.354 137.938 249.624 143.813C242.121 150.283 234.601 156.587 227.065 162.727C219.529 168.866 214.066 173.265 210.677 175.922C207.386 178.595 203.758 181.401 199.792 184.339C195.892 187.31 192.067 190.206 188.266 193.053L168.2 208.897C166.669 210.06 165.238 211.199 163.856 212.338C162.473 213.477 161.116 214.517 159.808 215.482C157.142 217.562 155.661 218.28 155.39 217.611C156.74 213.562 158.45 209.643 160.499 205.901C162.41 202.68 164.652 199.668 167.188 196.915C173.95 190.016 181.183 183.597 188.833 177.704C198.904 169.667 207.04 163.123 213.244 158.073C219.447 153.022 226.564 147.196 234.593 140.595C242.623 133.993 250.455 127.235 258.09 120.319C265.725 113.404 273.952 105.573 282.772 96.8259C291.526 88.0622 297.902 81.4028 301.9 76.8477C302.854 76.5506 302.953 77.6399 302.196 80.1155C299.117 88.7727 294.621 96.8548 288.893 104.03C282.952 111.415 276.59 118.45 269.839 125.097Z" fill="#FF6200"/>
<path d="M126.868 251.497C126.323 256.431 125.303 261.3 123.822 266.038C121.923 273.051 119.447 280.711 116.392 289.015C114.098 295.479 111.35 301.773 108.169 307.848C106.237 311.562 103.594 314.858 100.392 317.55C96.2642 320.4 91.646 322.461 86.7703 323.63C81.8148 325.147 76.7794 326.39 71.6871 327.352C69.3145 327.818 66.916 328.141 64.5047 328.319C63.514 328.22 62.9196 327.823 62.7214 327.128C62.6063 326.147 62.933 325.164 63.613 324.448C65.9252 321.76 68.7128 319.522 71.8358 317.848C76.2195 315.143 81.3216 311.719 87.1419 307.625C91.7223 304.603 95.8859 300.991 99.5254 296.881C102.741 292.565 105.529 287.944 107.847 283.084C110.951 276.964 113.767 270.785 116.293 264.549C118.819 258.312 120.619 254.061 121.692 251.795C122.757 249.537 123.946 248.445 125.234 248.544C126.522 248.643 126.868 249.735 126.868 251.497ZM114.485 188.495C114.485 186.312 116.334 181.589 120.033 174.327C123.731 167.065 126.125 163.434 127.215 163.434C129.37 162.541 132.54 164.203 136.676 168.397C140.812 172.59 143.041 175.841 143.339 178.322C143.339 181.498 141.613 186.047 138.162 191.969C134.695 197.9 132.193 200.877 130.608 200.877C130.014 200.58 127.983 199.265 124.466 196.932C120.949 194.6 118.373 192.863 116.689 191.672C115.005 190.481 114.435 189.587 114.435 188.495H114.485Z" fill="#FF6200"/>
<path d="M75.9057 240.285C75.1123 245.241 73.6202 250.058 71.4746 254.588C70.2678 257.71 68.1359 260.381 65.3694 262.237C62.8526 263.378 60.1658 264.091 57.4181 264.347C55.8861 266.781 53.9155 268.904 51.6084 270.605C48.6531 272.546 45.2731 273.731 41.7614 274.057C41.5645 274.057 41.2691 274.827 40.8752 276.391C39.1586 292.874 35.3444 309.066 29.5266 324.566C25.2924 335.468 19.7711 345.814 13.0822 355.383C-2.65652 376.905 -21.5298 387.723 -43.5377 387.839C-55.0258 387.343 -64.1015 383.527 -70.7646 376.391C-77.4277 369.256 -80.9397 359.398 -81.3008 346.816C-81.3008 326.851 -74.7936 305.172 -61.7792 281.78C-59.2683 277.078 -57.7666 275.613 -57.2742 277.384C-56.7823 279.07 -56.8341 280.87 -57.4219 282.525C-66.0708 299.758 -70.4855 314.658 -70.6661 327.223C-70.1737 336.842 -66.7519 344.109 -60.4006 349.026C-53.2569 354.239 -44.5953 356.904 -35.7833 356.6C-23.0337 356.51 -10.5367 353.005 0.428845 346.443C8.8725 340.774 15.9814 333.306 21.2551 324.566C28.9029 312.332 32.4971 295.495 32.0376 274.057V264.869C32.415 258.71 35.4676 255.581 41.1952 255.482C42.6588 255.483 44.1186 255.633 45.5525 255.929C46.6146 256.156 47.693 256.297 48.7774 256.351C51.9051 256.496 54.947 255.296 57.1473 253.049C59.0032 251.148 60.5934 249.001 61.8738 246.667C62.2431 246.071 63.7201 245.897 66.2311 246.071C67.835 246.097 69.3331 245.266 70.1698 243.885C71.1401 242.42 71.9179 240.834 72.4839 239.167C73.4686 236.833 74.4779 235.864 75.561 236.237C76.2011 236.361 76.2996 237.727 75.9057 240.285Z" fill="#FF6200"/>
<path d="M85.9407 171.68C84.3166 174.911 82.5269 178.055 80.5787 181.1C78.5947 184.277 76.4333 187.339 74.1049 190.273C68.2675 198.726 61.6044 206.577 54.214 213.711C47.3852 219.977 39.7176 225.261 31.4321 229.411C24.2439 232.683 16.4231 234.329 8.52659 234.232C2.79094 234.347 -2.89309 233.128 -8.07801 230.672C-12.5117 228.589 -16.3457 225.416 -19.2219 221.45C-21.7985 217.821 -23.5679 213.681 -24.4108 209.31C-25.2031 205.079 -25.6084 200.784 -25.6216 196.479C-25.2426 185.223 -22.6568 174.151 -18.0111 163.892C-14.235 154.922 -9.50474 146.384 -3.90215 138.427C-2.54314 136.424 -0.640552 133.853 1.75625 130.713C4.15304 127.573 7.01934 124.112 10.3304 120.329C10.4786 120.007 9.73734 119.315 8.08182 118.227C6.42631 117.139 4.84491 116.101 3.33765 115.137C2.21161 114.564 1.25051 113.713 0.545514 112.664C0.181964 111.728 0.0219152 110.725 0.0760355 109.722C0.493334 107.065 1.59148 104.56 3.26352 102.453C5.38851 99.2393 8.20536 95.4566 11.6399 91.1052C13.6315 88.7063 15.9046 86.5563 18.4103 84.7017C21.0064 82.3644 24.2951 80.9405 27.7751 80.647C29.8498 80.5556 31.8702 81.3249 33.3594 82.7732C34.5936 83.8182 35.3588 85.3139 35.4844 86.9268C35.3875 88.2842 34.8594 89.5751 33.9771 90.6107C33.2927 91.743 32.1075 92.4785 30.7896 92.5886C29.6754 92.468 28.6326 91.9811 27.8245 91.2041C26.6414 90.2781 25.1751 89.7891 23.6734 89.8195C21.303 90.1764 19.1613 91.4338 17.6937 93.3303C15.3958 95.6544 14.2591 97.4592 14.2591 98.7449C14.2591 100.031 15.5934 101.217 18.2867 102.181C20.9319 103.182 23.7366 103.693 26.5643 103.69C29.1179 103.755 31.6647 103.396 34.1006 102.627C36.6638 101.662 39.1432 100.488 41.5134 99.1157C44.3797 97.5087 46.134 97.0142 46.7765 97.657C47.4189 98.2998 47.419 99.4866 46.2823 100.673C45.1072 101.933 43.7693 103.031 42.3041 103.937C31.0614 111.824 23.3027 117.609 19.1022 121.244C13.8081 126.077 8.95423 131.373 4.59783 137.067C-0.662957 143.688 -5.09414 150.928 -8.59691 158.626C-11.7084 164.838 -13.4765 171.637 -13.7859 178.578C-13.9578 185.798 -11.1726 192.774 -6.07658 197.888C0.0183713 204.168 8.74073 207.308 20.0905 207.308C32.6335 207.403 44.9253 203.79 55.4247 196.924C58.7965 194.774 62.0163 192.395 65.0613 189.803C67.1616 187.949 69.1878 186.045 71.1645 184.067C73.0673 182.191 74.8735 180.218 76.5758 178.158C78.2314 176.205 79.8375 174.227 81.5177 172.249C83.1979 170.271 84.3593 168.664 85.3723 167.304C86.3854 165.944 87.0278 165.598 87.3491 165.92C87.6703 166.241 87.8432 167.304 87.3491 168.639C86.9832 169.698 86.5114 170.717 85.9407 171.68Z" fill="#FF6200"/>
<path d="M19.4262 21.1622C18.7876 38.2785 13.1423 54.8374 3.18255 68.8081C-6.40847 81.6844 -17.9144 88.1883 -31.3352 88.3198C-37.5705 88.3355 -43.5532 85.8694 -47.9503 81.4709C-52.2713 76.5586 -54.5781 70.2096 -54.4131 63.6838C-54.4131 51.6615 -50.4512 38.6209 -42.5275 24.562C-40.9923 21.7289 -40.0513 20.8173 -39.779 21.852C-39.4576 22.8705 -39.4576 23.9624 -39.779 24.9808C-45.0615 35.3443 -47.7605 44.2953 -47.876 51.8339C-47.9406 56.8382 -45.6957 61.5958 -41.7847 64.7431C-37.339 67.9038 -31.9951 69.5696 -26.5315 69.4979C-18.6904 69.4836 -10.9959 67.3826 -4.24594 63.4128C2.64921 59.0088 7.87594 52.4479 10.611 44.7634C11.7938 41.3007 12.3308 37.6522 12.1958 33.9975C12.1958 32.2977 12.1958 30.1297 12.1958 27.5183C12.1958 24.9069 12.1958 23.0099 12.1958 21.9013C12.5085 18.2391 13.2821 14.6305 14.4986 11.1601C15.4007 8.25437 16.484 5.4075 17.7424 2.63604C18.5843 0.886892 19.3272 0 19.8967 0C20.4662 0 20.491 0.443446 20.4414 1.35497C20.3919 2.2665 20.2929 4.04029 20.1691 6.62706C20.0453 9.21382 19.55 14.0425 19.4262 21.1622ZM-7.3907 29.8094C-7.15539 31.1093 -7.24901 32.447 -7.66308 33.7019C-8.1608 35.3412 -8.8245 36.9261 -9.64401 38.432C-10.611 40.2172 -11.8563 41.8387 -13.3335 43.236C-13.971 43.9747 -14.846 44.4709 -15.8097 44.6402C-16.7382 44.3191 -17.5838 43.7975 -18.2858 43.1128L-21.5791 40.2304C-22.6191 39.3682 -23.5105 38.6044 -24.2534 37.7668C-24.8332 37.3336 -25.2303 36.7014 -25.3677 35.993C-24.5753 34.4163 -24.0305 33.2092 -23.6591 32.3716C-22.4953 29.7355 -21.4553 27.6415 -20.6134 26.114C-19.7715 24.5866 -18.4096 22.2955 -16.5773 19.3145C-15.5125 20.1768 -14.1011 21.2361 -12.6154 22.4433C-11.2831 23.5189 -10.0785 24.7422 -9.02497 26.0894C-8.16195 27.1467 -7.59783 28.4138 -7.3907 29.7602V29.8094Z" fill="#FF6200"/>
<path d="M142.306 66.2439C144.316 63.793 146.326 61.1951 148.336 58.4011C150.345 55.607 152.355 53.0581 154.34 50.7298C155.894 48.8202 157.745 47.1658 159.823 45.828C161.133 44.9474 162.659 44.431 164.24 44.333C165.942 44.2469 167.586 44.9547 168.681 46.2447C169.75 47.5361 170.321 49.1598 170.295 50.8278C170.015 54.2511 169.045 57.5846 167.441 60.6314C165.829 64.2347 163.797 67.64 161.386 70.7781C158.304 74.9939 153.968 78.1552 148.981 79.8219C145.624 80.649 142.165 80.9957 138.709 80.8512C137.27 80.8512 136.376 81.1698 136.029 81.8316C135.748 82.2867 135.57 82.7968 135.508 83.3266C134.429 92.875 132.12 102.248 128.635 111.218C126.108 117.552 122.826 123.566 118.859 129.134C109.53 141.601 98.3318 147.891 85.2643 148.006C79.1842 148.021 73.3538 145.618 69.0871 141.339C64.8661 136.613 62.6143 130.483 62.7849 124.183C62.7849 112.598 66.639 100.001 74.3471 86.3902C75.8358 83.6452 76.8283 82.8119 77.0268 83.8168C77.3421 84.7892 77.3421 85.8345 77.0268 86.8069C71.8825 96.8392 69.2608 105.491 69.1615 112.762C69.1184 117.682 71.4149 122.337 75.3644 125.335C79.5926 128.269 84.6376 129.836 89.8048 129.82C97.402 129.792 104.854 127.762 111.391 123.938C116.428 120.657 120.665 116.312 123.797 111.218C128.329 104.11 130.463 94.3066 130.198 81.8071V76.6847C130.113 74.1767 130.534 71.6771 131.439 69.332C132.212 67.5402 133.86 66.264 135.806 65.9498C137.011 65.9592 138.213 66.0575 139.403 66.2439C140.362 66.4321 141.348 66.4321 142.306 66.2439ZM165.282 55.9992C165.282 55.509 164.612 54.9453 163.247 54.3816C162.012 53.84 160.679 53.5483 159.327 53.5238C157.069 53.5238 154.712 55.0924 152.231 58.2295C150.996 59.6585 149.844 61.156 148.782 62.7146C147.79 64.1607 147.045 65.1655 146.524 66.0724C148.025 65.9826 149.518 65.786 150.99 65.4841C152.761 65.0679 154.483 64.4681 156.126 63.695C158.284 62.579 160.321 61.2487 162.205 59.7246C163.509 58.7348 164.562 57.4595 165.282 55.9992Z" fill="#FF6200"/>
<path d="M5.06533 291.484C5.00016 294.938 4.60011 298.377 3.87088 301.752C3.24789 305.083 2.36766 308.36 1.23822 311.554C-0.188425 315.355 -1.93354 319.028 -3.97834 322.532C-5.48219 324.927 -7.1095 327.242 -8.85362 329.467C-11.8482 333.544 -15.5472 337.047 -19.7743 339.808C-24.0835 342.389 -29.019 343.72 -34.0345 343.655C-38.9419 343.933 -43.6749 341.783 -46.7102 337.897C-49.4093 334.07 -50.7643 329.449 -50.5617 324.762C-50.5231 321.98 -50.2293 319.207 -49.6842 316.479C-49.048 313.191 -48.0675 309.979 -46.759 306.898C-44.5115 302.014 -41.9211 297.297 -39.0073 292.783C-38.6416 292.17 -38.3004 291.607 -37.9347 291.068C-37.5691 290.529 -37.2522 290.382 -36.984 290.627C-36.7159 290.872 -36.984 293.077 -38.471 295.993C-39.6898 298.125 -40.543 299.669 -40.9086 300.576C-42.1466 303.305 -43.2052 306.113 -44.0776 308.981C-44.8361 311.229 -45.2871 313.57 -45.4183 315.94C-45.4183 321.062 -43.8094 324.664 -40.543 326.82C-37.2865 328.683 -33.5548 329.536 -29.8174 329.271C-26.0715 329.322 -22.3524 328.631 -18.8723 327.237C-13.7534 325.102 -9.31747 321.592 -6.05033 317.092C-4.29586 314.606 -2.84711 311.915 -1.73569 309.079C-0.63515 306.395 -0.0479758 303.527 -0.00495939 300.625C0.0860548 299.405 -0.185463 298.185 -0.785029 297.12C-1.24969 296.439 -1.99044 296 -2.80827 295.92C-3.59931 296.161 -4.4194 296.293 -5.2459 296.312C-6.42449 296.349 -7.57366 295.938 -8.4636 295.16C-9.31197 294.43 -9.69544 293.293 -9.46304 292.195C-9.06341 290.573 -8.49982 288.997 -7.78106 287.49L-6.02594 284.035C-5.53444 283.032 -4.94663 282.08 -4.27085 281.192C-3.64547 280.213 -2.61724 279.566 -1.46756 279.428C0.677371 279.494 2.58484 280.817 3.40772 282.81C4.67692 285.515 5.24704 288.499 5.06533 291.484ZM-30.5974 253.673C-29.9215 251.525 -28.9884 249.468 -27.8185 247.547C-25.9903 244.043 -24.8446 242.303 -24.4058 242.303C-23.967 242.303 -22.5044 242.499 -21.0175 243.92C-19.797 245.101 -18.6645 246.371 -17.6291 247.719C-16.776 246.248 -15.7765 244.557 -14.6552 242.818C-13.5339 241.078 -12.7782 240 -12.437 240C-10.8216 240.272 -9.36797 241.147 -8.36609 242.45C-7.03613 243.687 -6.17455 245.35 -5.92844 247.155C-6.09969 249.407 -6.95008 251.552 -8.36609 253.306C-10.0237 255.634 -11.2425 256.785 -12.0225 256.785C-12.8026 256.785 -13.3876 256.124 -14.7283 254.825C-15.8162 253.723 -16.9723 252.692 -18.1898 251.737C-20.6274 256.638 -22.5776 259.211 -24.0645 259.211C-24.6654 259.065 -25.2088 258.74 -25.6246 258.28C-26.2828 257.766 -27.2578 256.957 -28.5742 255.83C-29.8905 254.702 -30.5974 254.065 -30.5974 253.673Z" fill="#FF6200"/>
<path d="M8.93799 177.205C8.93799 176.124 10.8671 172.031 14.7254 164.924C18.5837 157.818 20.9562 154.248 21.8428 154.216C23.2958 154.216 25.5862 155.517 28.7139 158.145C31.3142 160.129 33.463 162.641 35.0185 165.514C37.0133 162.272 38.9343 159.103 40.7321 156.033C43.3672 151.71 44.9926 149.524 45.6575 149.524C47.8248 149.524 50.5831 151.072 53.9324 154.142C56.7184 156.566 58.4787 159.955 58.8579 163.623C58.4198 168.16 56.7132 172.483 53.9324 176.1C50.5831 181.012 48.1942 183.272 46.7412 183.272C45.2881 183.272 43.8844 182.142 41.8157 179.882C39.5505 177.38 37.0792 175.071 34.4274 172.981C29.5019 183.1 25.6108 188.159 22.754 188.159C20.1042 186.886 17.6564 185.23 15.4889 183.247C11.0559 179.833 8.93799 177.844 8.93799 177.205ZM21.2517 143.605C22.5564 139.446 24.2637 135.424 26.3496 131.595C29.7482 124.505 31.9482 120.96 32.9498 120.96C36.2511 121.352 39.2707 123.008 41.3724 125.577C44.0663 128.176 45.7058 131.674 45.9777 135.402C45.5121 139.765 44.055 143.965 41.7172 147.682C38.8604 152.914 36.7917 155.542 35.3879 155.542C34.5752 155.542 32.7527 154.289 29.9452 151.809C27.1377 149.328 25.0197 147.535 23.4928 146.454C21.9659 145.374 21.301 144.489 21.301 143.605H21.2517Z" fill="#FF6200"/>
</g>
</svg>
